<?xml version="1.0" encoding="utf-8"?>
<!-- Generator: Adobe Illustrator 27.3.1, SVG Export Plug-In . SVG Version: 6.00 Build 0)  -->
<svg version="1.1" xmlns="http://www.w3.org/2000/svg" xmlns:xlink="http://www.w3.org/1999/xlink" x="0px" y="0px"
	 viewBox="0 0 1000 700" style="enable-background:new 0 0 1000 700;" xml:space="preserve">
<style type="text/css">
	.st0{fill:#FFFFFF;}
	.st1{fill-rule:evenodd;clip-rule:evenodd;fill:#004990;}
	.st2{fill:#004990;}
</style>
<g id="Layer_2">
	<rect width="1000" height="700"/>
</g>
<g id="Layer_1">
	<g id="Logo_Cut-Out_WHITE_00000093870048281837474840000014179106423699415457_">
		<g>
			<path class="st0" d="M277.6,462.4c0,0,64.6,17.1,220.4,17.1c138.7,0,179.1-12.8,217.5-20.9c4.9-12.2,8.5-24.2,11-36H266.4
				C271.4,446.9,277.6,462.4,277.6,462.4z M665,433.2c2.6-1.8,5.2-3.1,10.5-3.1c2.5,0,6.5,1.2,10.7,3.3l-2.5,4.3
				c-2.6-1.1-5.6-2.5-8.3-2.5c-2.9,0-4.6,0.4-6.4,1.9c-1.8,1.4-2.3,3.3-2.3,5.6c0,2.3,0.5,4.2,2.2,5.9c1.3,1.3,3.2,1.8,6.4,1.8
				c2.7,0,6.1-1.2,9-2.8l2.7,4.3c-5,3.6-8.5,4.1-11.2,4.1c-4.7,0-6.8-1-10.1-3.1c-3.7-2.4-4.9-6-4.9-10.1
				C660.7,438.5,662.9,434.7,665,433.2z M635.5,431.6h6.2v16.5l14.2,0v6.3l-20.4,0V431.6z M608.6,431.6h6.2v16.5l14.2,0v6.3l-20.4,0
				V431.6z M577.3,448.4h6.5l-6.8,12.5h-4L577.3,448.4z M546.9,431.5H571v5h-8.7v17.9H556v-17.9h-9.1V431.5z M515.7,431.7h5.9
				l15.4,15.1l0-15.2h5.7v22.9h-5l-16.5-16.4v16.4h-5.5V431.7z M486.9,431.9H509v4.5h-16.4v4.3h14.8v4.5h-14.8v4.9h16.9v4.5h-22.6
				V431.9z M447.3,431.6h10l5.7,13.1c0.3,0.6,0.4,0.6,1.3,0.6c0.5,0,0.7-0.1,1.1-0.7l5.8-13h9.5v22.8H475v-17.8l-8.6,17.8h-4.5
				l-8.5-17.6v17.6h-6V431.6z M417,431.6h11c5.3,0,9.2-0.1,11.7,1.1c2.5,1.2,3.8,3.8,3.8,6.4c0,2.3-1.2,4.1-3.7,5.4
				c-2.4,1.3-5.8,1.9-10,1.9h-6.9v8H417V431.6z M404.9,431.6h6.2v22.8h-6.2V431.6z M372.8,431.7h5.9V445c0,4.9,3.2,5.5,6.7,5.5
				c3.5,0,7.7-0.2,7.7-5.5v-13.3h5.3v14.4c0,3.2-1.7,6.1-3.5,7.2c-2.3,1.5-5.3,2.3-9.4,2.3c-4.2,0-6.8-0.8-9.1-2.3
				c-1.7-1.1-3.5-4-3.5-7.2V431.7z M342.5,434.7c2.4-2.5,5.9-4,10.2-3.9c5,0.1,8.3,0.9,11,3.1c2.7,2.2,4.6,5.5,4.6,8.6
				c0,5.6-1.4,7.4-3.7,9.3l2.5,3.9l-3.4,3.7l-4.2-4.8c0,0-2.2,0.8-6.9,0.8c-4.6,0-7.2-1.6-9.9-3.8c-2.6-2.2-3.4-5.3-3.4-9.2
				C339.3,439.4,340.6,436.2,342.5,434.7z M312,431.9h22.1v4.5h-16.4v4.3h14.8v4.5h-14.8v4.9h16.9v4.5H312V431.9z"/>
			<path class="st0" d="M345,312.7c-19.4,0-25.5,22.5-25.5,40.9c0,17.5,5.3,40.9,24.4,40.9c9.4,0,14.3-6.9,18.5-15.8
				c3.6-8.1,4.4-17.7,4.4-26.6C366.7,335.3,362,312.7,345,312.7z"/>
			<path class="st0" d="M437.2,438.5c0-1.6-0.6-2.2-1.3-2.2h-13v4.3h13C436.5,440.5,437.2,440.3,437.2,438.5z"/>
			<polygon class="st0" points="538.6,365.1 570.9,365.1 555.4,320.2 			"/>
			<path class="st0" d="M750.7,405.5c9.6-73.6-17.3-132.4-18.5-135l-1.6-3.4l-3.4-1.5c-2.5-1.1-63.2-27-232-27
				c-18.7,0-36.8,0.3-54.1,1l11-27.3l-58.5-13.9l-4.6,44.5c-72.5,6.5-109.1,19-123.1,23.7l-4.2,1.4l-1.8,4.1
				c-21.2,48.8-21.1,97.7-16.2,133.3h-19.6v27.1h24.6c5.8,24.7,12.7,40.3,13.1,41l1.9,4.1l4.3,1.3c3,0.9,74.5,22.3,230,22.3
				c119.9,0,172-12.2,210-21c6.1-1.4,11.8-2.7,17.2-3.9l5-1l2.1-4.6c5.5-12.2,10-25,13.3-38.2h30.3v-27.1H750.7z M402.3,210.9
				l36.1,8.6l-37.1,92.1h-9.5L402.3,210.9z M664.2,352.8l13.7-22.6c1.1-2.2,7-10.2,6.1-16.3c-0.6-3.8-8.4-3.1-10.7-3.2v-12.1h40.9
				v12.4c-11.4,0-12.8,1.8-24,20.7l-21.6,34.2v26.7h10.7v12.8h-49.5v-12.8h9.5v-27l-27-54.1l-11.9,0.1v-13.1h54.2v12.8h-11.2
				L664.2,352.8z M612.3,392.6h11.4v13h-55.8l0.1-13c3-0.5,13.8,1.5,12.5-2.3c-0.7-2.1-5.6-13-5.6-13h-40.2c0,0-2.7,4.9-2.8,8.2
				c-0.5,8.1,3.8,6.7,6.3,7.2h7.9v13h-42.6v-13c15.1-0.5,15.3-8.7,19.6-20l27-74h29.3L612.3,392.6z M496.5,395
				c-11.8,11.6-26,12.1-40.8,12.1h-43.2v-14.6h10.2v-80.3h-10v-13.8h39.6c8,0,20.2,0,27.8,2.4c9,2.9,18.8,10.6,24,19.1
				c6.1,9.6,9.3,21.1,9.3,32.9C513.5,369.2,507.5,384.2,496.5,395z M399.5,350.4c-0.7,40.6-26.7,59.5-57.3,59.5
				c-13.7,0-26.6-3.8-36.9-14.3c-10.7-10.8-15.9-25.4-15.9-41.5c0-34.4,22.6-58.2,54.6-58.2C372.2,295.8,400,317.2,399.5,350.4z
				 M765.9,422.7h-28.2c-3.1,14.4-7.8,29.2-14.5,44c-38.5,8.1-86.5,24.7-225.1,24.7c-155.8,0-227-21.8-227-21.8s-8.2-18.3-14.1-46.9
				h-22.7v-7.1h21.3c-6.7-36.9-8.5-88.2,13.6-139.3c17-5.8,53.1-17.4,124.3-23.6l-0.9,11.4c-67.4,4.5-99,13.1-115.9,18.8
				c-20.3,47.6-17.8,97.6-11.5,132.6H728c13.9-74.2-12-134.1-12-134.1s-52.2-20.4-220.9-20.4c-25.5,0-48.1,0.4-68.1,1.2l5.6-12.2
				c18.9-0.9,39.7-1.4,62.6-1.4c168.6,0,228,26.1,228,26.1S753,338.7,739,415.5h26.8V422.7z"/>
			<path class="st0" d="M352.6,450.6c2.8,0.1,4.1-0.2,6.1-1.3c1.9-1.1,3.8-3,3.8-6.3c0-2.2-1.1-4.2-3-5.7c-1.8-1.3-4-1.7-6.3-1.7
				c-2.4,0-4.5,0.4-6.1,1.9c-1.3,1.2-2.4,3.3-2.4,5.5c0,2.2,0.6,3.5,1.7,4.9C347.9,449.6,350.3,450.5,352.6,450.6z"/>
			<path class="st0" d="M466.7,311.6h-13.9v80.7h12.3c7.4-0.7,16.2-17.9,16.2-39.9c0-9.7-1.3-19.8-5.5-28.2
				C472,316.8,468.3,311.8,466.7,311.6z"/>
			<path class="st0" d="M422.8,436.2h13c0.7,0,1.3,0.6,1.3,2.2c0,1.9-0.7,2-1.3,2h-13V436.2z"/>
		</g>
	</g>
	<g id="Logo_Blue_00000011751743226486380910000004298301354098719104_">
		<g>
			<polygon class="st1" points="391.8,310.5 401.3,310.5 438.4,218.3 402.3,209.8 			"/>
			<path class="st1" d="M412.5,406h43.2c14.8,0,28.9-0.5,40.8-12.1c11-10.8,17-25.8,17-42.1c0-11.8-3.2-23.3-9.3-32.9
				c-5.3-8.5-15.1-16.2-24-19.1c-7.6-2.4-19.8-2.4-27.8-2.4h-39.6v13.8h10v80.3h-10.2V406z M452.8,310.4h13.9
				c1.6,0.2,5.3,5.2,9.1,12.6c4.3,8.4,5.5,18.5,5.5,28.2c0,22-8.9,39.2-16.2,39.9h-12.3V310.4z"/>
			<path class="st2" d="M579.3,297.4H550l-27,74c-4.3,11.3-4.5,19.6-19.6,20v13h42.6v-13h-7.9c-2.5-0.5-6.8,0.9-6.3-7.2
				c0.2-3.3,2.8-8.2,2.8-8.2h40.2c0,0,4.9,10.9,5.6,13c1.3,3.8-9.5,1.8-12.5,2.3l-0.1,13h55.8v-13h-11.4L579.3,297.4z M538.6,364
				l16.8-44.9l15.6,44.9H538.6z"/>
			<path class="st2" d="M668.6,364.7l21.6-34.2c11.2-18.9,12.6-20.7,24-20.7v-12.4h-40.9v12.1c2.3,0.2,10.1-0.5,10.7,3.2
				c0.9,6.1-4.9,14.1-6.1,16.3l-13.7,22.6l-20.7-41.4h11.2v-12.8h-54.2v13.1l11.9-0.1l27,54.1v27h-9.5v12.8h49.5v-12.8h-10.7V364.7z
				"/>
			<path class="st2" d="M342.1,408.7c30.7,0,56.6-18.9,57.3-59.5c0.6-33.2-27.3-54.5-55.5-54.5c-32,0-54.6,23.8-54.6,58.2
				c0,16.1,5.2,30.7,15.9,41.5C315.5,404.9,328.5,408.7,342.1,408.7z M343.8,393.3c-19.1,0-24.4-23.4-24.4-40.9
				c0-18.3,6.1-40.9,25.5-40.9c17.1,0,21.7,22.6,21.7,39.4c0,8.9-0.8,18.5-4.4,26.6C358.1,386.4,353.2,393.3,343.8,393.3z"/>
			<polygon class="st2" points="312,453.5 312,430.7 334.1,430.7 334.1,435.2 317.7,435.2 317.7,439.5 332.4,439.5 332.4,444 
				317.7,444 317.7,449 334.6,449 334.6,453.5 			"/>
			<path class="st2" d="M344.7,441.7c0,2.2,0.6,3.5,1.7,4.9c1.5,1.8,3.9,2.7,6.2,2.8c2.8,0.1,4.1-0.2,6.1-1.3c1.9-1.1,3.8-3,3.8-6.3
				c0-2.2-1.1-4.2-3-5.7c-1.8-1.3-4-1.7-6.3-1.7c-2.4,0-4.5,0.4-6.1,1.9C345.8,437.4,344.7,439.5,344.7,441.7z M363.6,458.3
				l-4.2-4.8c0,0-2.2,0.8-6.9,0.8c-4.6,0-7.2-1.6-9.9-3.8c-2.6-2.2-3.4-5.3-3.4-9.2c0-3,1.3-6.2,3.2-7.8c2.4-2.5,5.9-4,10.2-3.9
				c5,0.1,8.3,0.9,11,3.1c2.7,2.2,4.6,5.5,4.6,8.6c0,5.6-1.4,7.4-3.7,9.3l2.5,3.9L363.6,458.3z"/>
			<path class="st2" d="M398.3,430.5v14.4c0,3.2-1.7,6.1-3.5,7.2c-2.3,1.5-5.3,2.3-9.4,2.3c-4.2,0-6.8-0.8-9.1-2.3
				c-1.7-1.1-3.5-4-3.5-7.2v-14.4h5.9v13.3c0,4.9,3.2,5.5,6.7,5.5c3.5,0,7.7-0.2,7.7-5.5v-13.3H398.3z"/>
			<rect x="404.9" y="430.4" class="st2" width="6.2" height="22.8"/>
			<path class="st2" d="M417,453.3v-22.8h11c5.3,0,9.2-0.1,11.7,1.1c2.5,1.2,3.8,3.8,3.8,6.4c0,2.3-1.2,4.1-3.7,5.4
				c-2.4,1.3-5.8,1.9-10,1.9h-6.9v8H417z M422.8,435v4.3h13c0.6,0,1.3-0.2,1.3-2c0-1.6-0.6-2.2-1.3-2.2H422.8z"/>
			<path class="st2" d="M447.3,453.3v-22.8h10l5.7,13.1c0.3,0.6,0.4,0.6,1.3,0.6c0.5,0,0.7-0.1,1.1-0.7l5.8-13h9.5v22.8H475v-17.8
				l-8.6,17.8h-4.5l-8.5-17.6v17.6H447.3z"/>
			<polygon class="st2" points="515.7,453.3 515.7,430.5 521.6,430.5 537,445.6 537,430.3 542.7,430.3 542.7,453.3 537.7,453.3 
				521.3,436.9 521.3,453.3 			"/>
			<polygon class="st2" points="556,453.3 556,435.3 546.9,435.3 546.9,430.3 571,430.3 571,435.3 562.3,435.3 562.3,453.3 			"/>
			<polygon class="st2" points="573,459.7 577.3,447.3 583.8,447.3 577,459.7 			"/>
			<path class="st2" d="M684.2,446.3l2.7,4.3c-5,3.6-8.5,4.1-11.2,4.1c-4.7,0-6.8-1-10.1-3.1c-3.7-2.4-4.9-6-4.9-10.1
				c0-4,2.1-7.9,4.3-9.4c2.6-1.8,5.2-3.1,10.5-3.1c2.5,0,6.5,1.2,10.7,3.3l-2.5,4.3c-2.6-1.1-5.6-2.5-8.3-2.5
				c-2.9,0-4.6,0.4-6.4,1.9c-1.8,1.4-2.3,3.3-2.3,5.6c0,2.3,0.5,4.2,2.2,5.9c1.3,1.3,3.2,1.8,6.4,1.8
				C677.9,449,681.3,447.8,684.2,446.3z"/>
			<polygon class="st2" points="486.9,453.5 486.9,430.7 509,430.7 509,435.2 492.6,435.2 492.6,439.5 507.4,439.5 507.4,444 
				492.6,444 492.6,449 509.5,449 509.5,453.5 			"/>
			<polygon class="st2" points="608.6,453.3 608.6,430.4 614.9,430.4 614.9,446.9 629,447 629,453.3 			"/>
			<polygon class="st2" points="635.5,453.3 635.5,430.4 641.8,430.4 641.8,446.9 656,447 656,453.3 			"/>
			<g>
				<path class="st2" d="M234.1,414.4v7.1h22.7c-0.5-2.3-0.9-4.7-1.4-7.1H234.1z"/>
				<path class="st2" d="M765.9,414.4H739c-0.4,2.4-0.9,4.7-1.4,7.1h28.2V414.4z"/>
				<path class="st2" d="M726.6,421.5c0.5-2.4,1-4.8,1.5-7.1H265.1c0.4,2.4,0.9,4.8,1.4,7.1H726.6z"/>
				<path class="st2" d="M723.1,273.6c0,0-59.4-26.1-228-26.1c-22.9,0-43.7,0.5-62.6,1.4l-5.6,12.2c20.1-0.8,42.7-1.2,68.1-1.2
					c168.6,0,220.9,20.4,220.9,20.4s25.9,59.9,12,134.1c-0.4,2.4-0.9,4.7-1.5,7.1c-2.6,11.7-6.2,23.8-11,36
					c-38.5,8.1-78.8,20.9-217.5,20.9c-155.8,0-220.4-17.1-220.4-17.1s-6.2-15.5-11.1-39.8c-0.5-2.3-0.9-4.7-1.4-7.1
					c-6.2-35.1-8.7-85,11.5-132.6c16.8-5.7,48.4-14.3,115.9-18.8l0.9-11.4c-71.3,6.1-107.3,17.8-124.3,23.6
					c-22.2,51.1-20.3,102.4-13.6,139.3c0.4,2.4,0.9,4.8,1.4,7.1c5.9,28.6,14.1,46.9,14.1,46.9s71.2,21.8,227,21.8
					c138.7,0,186.7-16.6,225.1-24.7c6.7-14.9,11.4-29.6,14.5-44c0.5-2.4,1-4.8,1.4-7.1C753,337.5,723.1,273.6,723.1,273.6z"/>
			</g>
		</g>
	</g>
</g>
</svg>
